PathFileType	4	(X/Y/Z)	59_1_52_p1_0-246_filt_butterworth.trc
DataRate	CameraRate	NumFrames	NumMarkers	Units	OrigDataRate	OrigDataStartFrame	OrigNumFrames
49.0	49.0	5	27	m	49.0	184	246
Frame#	Time	RHip			RKnee			RAnkle			RBigToe			RSmallToe			RHeel			LHip			LKnee			LAnkle			LBigToe			LSmallToe			LHeel			Neck			Head			Nose			RShoulder			RElbow			RWrist			RThumb			RIndex			RPinky			LShoulder			LElbow			LWrist			LThumb			LIndex			LPinky			
		X1	Y1	Z1	X2	Y2	Z2	X3	Y3	Z3	X4	Y4	Z4	X5	Y5	Z5	X6	Y6	Z6	X7	Y7	Z7	X8	Y8	Z8	X9	Y9	Z9	X10	Y10	Z10	X11	Y11	Z11	X12	Y12	Z12	X13	Y13	Z13	X14	Y14	Z14	X15	Y15	Z15	X16	Y16	Z16	X17	Y17	Z17	X18	Y18	Z18	X19	Y19	Z19	X20	Y20	Z20	X21	Y21	Z21	X22	Y22	Z22	X23	Y23	Z23	X24	Y24	Z24	X25	Y25	Z25	X26	Y26	Z26	X27	Y27	Z27	
184	3.755102040816327	0.3226548017141114	0.5770827083352805	1.1530010310162981	0.28518265562182776	0.5186571056982985	1.5210661989796652	0.29217685847343855	0.6568315988669835	1.8880106617009955	0.2763994245260671	0.5220428498889659	1.9224502168992426	0.3383612967335071	0.5620791839805801	1.922729039479404	0.2871484391548317	0.7898514311555218	1.9523255975250993	0.10319272467617051	0.5580771691543505	1.128550880119816	0.11240771635218572	0.4778506899863312	1.5021012853834916	0.11316409420216512	0.6939055021039355	1.8893388585930415	0.12630105636853337	0.5297495769435002	1.9180088261206067	0.07718146866887729	0.5742926534855028	1.9105445545678612	0.12598855748765841	0.7375466093268528	1.9246519877360717	0.23713999895291815	0.3737545402745101	0.5933274837090083	0.24501708831517868	0.33238265061540845	0.34873792752261806	0.2439969598157499	0.19725096553152538	0.47115782955507607	0.3592707299709985	0.3990847984257715	0.6712125676870576	0.26512412715484496	0.07876820557972426	0.825102579468745	0.26545670950277317	0.027295416456890764	0.6590833532935889	0.26939930915672783	0.048924611686692376	0.5870535534573895	0.27745210692580613	0.002419721306160496	0.5689849682638068	0.27366495677742253	-0.06747892615736845	0.6016050306702518	0.10360465706389083	0.3865207113564262	0.6494649191676043	0.1378674446700428	0.202472138278779	0.8581546603246761	0.18727640164332662	0.1381319500977256	0.690008033144201	0.14547740148912996	0.18088288162328583	0.6489941638057184	0.15403877215403608	0.16033196242192216	0.627462129023725	0.12831720146556022	0.08143880363241976	0.6620389205936927
185	3.7755102040816326	0.3225881435391558	0.5767514553186924	1.1541504728482042	0.2841245597935578	0.5150380776869777	1.5196093123444754	0.2922548398864206	0.6571351445632345	1.8880309894124043	0.2761653777161521	0.5143458909468562	1.920597828191368	0.33827871654144276	0.5601891945437029	1.9240235942535449	0.28869086420881024	0.7908184259741511	1.952178052339216	0.1034416771626703	0.5584282122054611	1.1323954542743517	0.11258307266752571	0.47856422256764136	1.502340833475685	0.11289791639891579	0.6931113666189518	1.8877167780196655	0.12648307863659208	0.5296548911958908	1.9179637225823474	0.07694313092064893	0.5748711212902067	1.9108398054023121	0.12593880778812877	0.737271076602694	1.924129497872762	0.23976528630728278	0.37378336398806206	0.5949815394658378	0.24461049485180622	0.3310763470793576	0.34914223817557916	0.24394402393743503	0.1971754050985534	0.4687301780657624	0.362327509602123	0.3993490224119881	0.6757139160712611	0.2634127827394408	0.08287032037026178	0.8251343116656413	0.2654247153614546	0.04945365700193706	0.6495707167444776	0.2665686467740064	0.07537964681817418	0.5801469570014409	0.27530786063520246	0.03659533691977877	0.5538029664292061	0.27134061365312084	-0.029868831952774073	0.5965574411861612	0.10418007658045984	0.3868975190570507	0.655507140184874	0.14471153429450798	0.20788698560344826	0.8634117476275639	0.19056960210167934	0.135108811851867	0.6952242551169687	0.1481468771998605	0.11881205896766289	0.6687208777848025	0.1539209028074203	0.08633477784690552	0.6475646004301191	0.13448884738314196	0.026674544060096065	0.6767714116215915
186	3.795918367346939	0.32324177419352296	0.5788258261778484	1.1582794558015654	0.2825543365717813	0.5095600735176432	1.5185505305865903	0.29229173356672555	0.6571928956294417	1.888101280469514	0.276315526788667	0.5067766904921147	1.9177792783041003	0.33816509694791036	0.559409986801438	1.9242142835171308	0.28858549689120516	0.7956916094578876	1.9536446948700161	0.10411098013461348	0.5604642945058006	1.1373687920141111	0.11265359923175054	0.47900334683258594	1.5028469995988019	0.112495730206876	0.6919098888501378	1.8852407107000824	0.12612047707502988	0.5293546745536439	1.9157646889595095	0.07709800466181502	0.5743458271266443	1.91062018451785	0.1260379919306645	0.7383258868807029	1.9249752449224677	0.24250179920731857	0.3738433203593384	0.5970478630687557	0.24476090936115918	0.3301801976728722	0.34932220480039883	0.2437511075063384	0.19635511579796106	0.46576336609277846	0.36451766333855984	0.39917145518243946	0.6802510931370923	0.26424427705463777	0.10305430182406332	0.8342011651937398	0.2651996265050629	0.06952078711342262	0.6510965393585681	0.2598685626708003	0.09393384095512829	0.5827988138646542	0.27087574540803433	0.0558135931331011	0.555895589928742	0.26425912813058067	0.009963180959673724	0.5968524788070105	0.10499314414632069	0.38650129519112564	0.6629065231825164	0.15504658591842543	0.20653835296721904	0.8700474332718271	0.18966139620618494	0.11445400244055325	0.701874212428617	0.15287521132078138	0.048398792983143764	0.6829006642833951	0.15481913902289235	0.017910045038546644	0.6655764903923322	0.14769060836634798	-0.044513390980269664	0.6819989078803709
187	3.816326530612245	0.32368287021491754	0.5806318117654408	1.162367107599031	0.28145722366177917	0.5057034947407176	1.5182981758656193	0.29230914841780664	0.6571625850840852	1.8881790085309276	0.2756596233275219	0.5037838954682939	1.915359832640056	0.3380124960210738	0.5598421670586989	1.923746705544991	0.2875597298943985	0.8030198966540586	1.9575391882067241	0.10491282435254352	0.5632330546350712	1.1407070107262551	0.11234285520442527	0.47800318261432817	1.5032199429603337	0.11219482324436074	0.6912097216126063	1.8835397764714061	0.12481943780091576	0.5275025685818966	1.9107301467027389	0.07720481938845025	0.574038666626957	1.9104852912103751	0.12674631899240837	0.7431430185085715	1.9283494189639305	0.24409603363996876	0.3740389293574665	0.5989035337764962	0.2444792249223226	0.33071828287637545	0.34954599461572194	0.24355847158224392	0.19539417956890928	0.46485829267496115	0.36519540720631555	0.3988679051904449	0.6827489820116617	0.26548890110538625	0.1323090403822064	0.8469975377333168	0.2630944480833029	0.07896528074835305	0.6617639301573583	0.25502952494935016	0.09719236625583988	0.5923685662024942	0.2639592072697944	0.059268016217724734	0.5742152500031341	0.25830334643271646	0.030584376407856297	0.6046539754404598	0.10573479395224858	0.38688826857610686	0.6677613076557699	0.1663274337170683	0.1902404286947885	0.8733906270389442	0.18479959271347063	0.06713692762842112	0.708152077575077	0.15477619680155488	0.003920950595693597	0.685816650821998	0.15485041631102978	-0.0018892755576786482	0.6730717642174961	0.1597327125928222	-0.09331240539707295	0.6819393280270332
188	3.836734693877551	0.3236714262200064	0.5812313170810457	1.1639780173650458	0.2811052820459293	0.5044853138541776	1.5183762893834891	0.2922595475703646	0.6568726197597392	1.8881212078014118	0.27448853310631166	0.5040107326384237	1.9147672118366192	0.3376206133989916	0.5607912128712442	1.9226933764284526	0.2867916018185437	0.8085482662622545	1.9629468504492174	0.10549099845652733	0.5652110310851199	1.1417496792729516	0.11169194726623688	0.4757354930963756	1.5025404174348465	0.11209628396428878	0.6912265913234933	1.8830981431418414	0.12316976634947963	0.5231970979325854	1.9051007052754283	0.07722850617474783	0.5740163469253257	1.9104949176171746	0.12775782595897503	0.7501875639796954	1.9331684880563786	0.24428924679336972	0.37379623878287854	0.5996000579377494	0.24265736112942365	0.3322841896310872	0.3502119057073729	0.24348532561507627	0.19515783626996183	0.4663829285993924	0.3652014625085967	0.39857528636304584	0.6829304915546699	0.2675440066328451	0.16152710309084237	0.8595932145319054	0.25840132164750457	0.08017328947014798	0.676376333731786	0.25055225992793506	0.09103310657669147	0.6056563567608242	0.2578222246641049	0.05526301819233181	0.5966758722286796	0.2549750804412413	0.02835489462229352	0.6208752682072814	0.10589947653106026	0.3862018312050414	0.6691260316084826	0.1748219985471013	0.1651400517744205	0.872224827132089	0.17952842626031282	0.028163620113275573	0.711551415991532	0.1535220347211266	-0.0024500387871795627	0.6795472660087818	0.15593394225098295	0.02313906922210028	0.6688233097462326	0.16626976758273207	-0.10042622958142512	0.6812992348187848
